# xmcd CD database file
#
# Track frame offsets:
#	183
#	14870
#	47030
#	60290
#	86233
#	100940
#	122808
#	147193
#	166790
#	191320
#	203905
#	233263
#	249170
#	271703
#
# Disc length: 3906 seconds
#
# Revision: 0
# Processed by: cddbd v1.4PL0 Copyright (c) Steve Scherf et al.
# Submitted via: CDex 1.50
#
DISCID=b00f400e
DTITLE=The Ballroom Dance Orchestra - Salsa
DYEAR=1997
DGENRE=Salsa
TTITLE0=Taka Taka-ta
TTITLE1=Coge el camaron
TTITLE2=Pare cochero
TTITLE3=Lo que me paso en la guagua
TTITLE4=Mi chiquita
TTITLE5=El coco
TTITLE6=Eso que anda
TTITLE7=Se muere la tia
TTITLE8=Yo no quiere que seas celosa
TTITLE9=El bobo de la yuca
TTITLE10=La protesta de los chivos
TTITLE11=Santa barbara
TTITLE12=Longina
TTITLE13=Los sitios entero
EXTD=YEAR: 1997
EXTT0=
EXTT1=
EXTT2=
EXTT3=
EXTT4=
EXTT5=
EXTT6=
EXTT7=
EXTT8=
EXTT9=
EXTT10=
EXTT11=
EXTT12=
EXTT13=
PLAYORDER=
